<svg xmlns="http://www.w3.org/2000/svg" viewBox="0 0 512 512" role="img" aria-label="Wiki cyber app icon">
  <defs>
    <radialGradient id="g" cx="50%" cy="36%" r="72%"><stop offset="0" stop-color="#9dffb2" stop-opacity=".42"/><stop offset=".55" stop-color="#0d120f"/><stop offset="1" stop-color="#000"/></radialGradient>
    <filter id="soft"><feGaussianBlur stdDeviation="7"/></filter>
  </defs>
  <rect width="512" height="512" rx="112" fill="url(#g)"/>
  <rect x="34" y="34" width="444" height="444" rx="88" fill="none" stroke="#e7cd87" stroke-width="4" opacity=".34"/>
  <path d="M74 104 H160 M352 104 H438 M74 408 H160 M352 408 H438" stroke="#9dffb2" stroke-width="8" stroke-linecap="round" opacity=".7"/>
  <g opacity=".96">
        <circle cx="150" cy="168" r="22" fill="#53a469"/><circle cx="362" cy="168" r="22" fill="#9dffb2"/><circle cx="180" cy="348" r="22" fill="#9dffb2"/><circle cx="332" cy="342" r="22" fill="#53a469"/><circle cx="256" cy="256" r="34" fill="#e7cd87"/>
        <path d="M150 168 L256 256 L362 168 M256 256 L180 348 M256 256 L332 342 M150 168 L180 348 M362 168 L332 342" stroke="#e7cd87" stroke-width="9" opacity=".72"/>
        <path d="M112 112 H400 V400 H112 Z" fill="none" stroke="#53a469" stroke-width="8" stroke-dasharray="24 15" opacity=".75"/>
        </g>
  <circle cx="256" cy="256" r="72" fill="#0d120f" opacity=".82"/>
  <circle cx="256" cy="256" r="72" fill="none" stroke="#9dffb2" stroke-width="4" opacity=".85"/>
  <text x="256" y="285" text-anchor="middle" font-family="Inter, ui-sans-serif, system-ui, -apple-system, BlinkMacSystemFont, sans-serif" font-size="92" font-weight="900" fill="#f6f1e6" letter-spacing="-4">W</text>
</svg>